<svg width="16" height="16" viewBox="0 0 16 16" fill="none" xmlns="http://www.w3.org/2000/svg">
  <path d="M8.96556 8.02349L13.8273 3.16177C14.0878 2.9012 14.0878 2.47911 13.8273 2.21928C13.5667 1.95871 13.1446 1.95871 12.8848 2.21928L8.02307 7.08099L3.16135 2.21849C2.90155 1.95793 2.47869 1.95793 2.21886 2.21849C1.9583 2.47906 1.9583 2.90116 2.21886 3.16099L7.08058 8.02349L2.21886 12.8852C1.9583 13.1458 1.9583 13.5679 2.21886 13.8277C2.34839 13.9587 2.51906 14.0235 2.68972 14.0235C2.86037 14.0235 3.03105 13.9587 3.16135 13.8285L8.02307 8.96595L12.8848 13.8277C13.0151 13.958 13.1857 14.0227 13.3564 14.0227C13.5271 14.0227 13.6977 13.958 13.828 13.8277C14.0886 13.5671 14.0886 13.145 13.828 12.8852L8.96551 8.02346L8.96556 8.02349Z" fill="#20252B" />
</svg>
