<svg xmlns="http://www.w3.org/2000/svg" width="17" height="17" viewBox="0 0 17 17" _ngcontent-serverapp-c6="" aria-hidden="true">
    <defs _ngcontent-serverapp-c6="">
        <filter id="ubn4bmhbfa" _ngcontent-serverapp-c6="">
            <feColorMatrix in="SourceGraphic" values="0 0 0 0 0.607843 0 0 0 0 0.607843 0 0 0 0 0.607843 0 0 0 1.000000 0" _ngcontent-serverapp-c6=""/>
        </filter>
    </defs>
    <g fill="none" fill-rule="evenodd" _ngcontent-serverapp-c6="">
        <g _ngcontent-serverapp-c6="">
            <g _ngcontent-serverapp-c6="">
                <g _ngcontent-serverapp-c6="">
                    <g filter="url(#ubn4bmhbfa)" transform="translate(-152 -2831) translate(120 2549) translate(0 79) translate(32 201)" _ngcontent-serverapp-c6="">
                        <g _ngcontent-serverapp-c6="">
                            <path fill="#000" fill-rule="nonzero" d="M8.5 0c3.912 0 7.083 3.171 7.083 7.083 0 2.389-1.276 4.73-3.381 6.951-.722.762-1.493 1.456-2.265 2.07-.27.216-.522.406-.748.57-.138.1-.24.169-.296.207-.238.159-.548.159-.786 0-.057-.038-.158-.108-.296-.207-.226-.164-.478-.354-.748-.57-.772-.614-1.543-1.308-2.265-2.07-2.105-2.222-3.381-4.562-3.381-6.95C1.417 3.17 4.588 0 8.5 0zm0 1.417c-3.13 0-5.667 2.537-5.667 5.666 0 1.95 1.114 3.993 2.994 5.977.672.71 1.395 1.36 2.118 1.936.197.157.383.3.555.426.172-.127.358-.269.555-.426.723-.575 1.446-1.226 2.118-1.936 1.88-1.984 2.994-4.026 2.994-5.977 0-3.13-2.537-5.666-5.667-5.666zm0 2.833c1.565 0 2.833 1.269 2.833 2.833 0 1.565-1.268 2.834-2.833 2.834-1.565 0-2.833-1.269-2.833-2.834C5.667 5.52 6.935 4.25 8.5 4.25zm0 1.417c-.782 0-1.417.634-1.417 1.416 0 .783.635 1.417 1.417 1.417s1.417-.634 1.417-1.417c0-.782-.635-1.416-1.417-1.416z" transform="translate(0 2)" _ngcontent-serverapp-c6=""/>
                        </g>
                    </g>
                </g>
            </g>
        </g>
    </g>
</svg>