<?xml version="1.0" encoding="utf-8"?>
<!-- Generator: Adobe Illustrator 21.1.0, SVG Export Plug-In . SVG Version: 6.00 Build 0)  -->
<svg version="1.1" id="Livello_1" xmlns="http://www.w3.org/2000/svg" xmlns:xlink="http://www.w3.org/1999/xlink" x="0px" y="0px" viewBox="0 0 125.7 87.6" style="enable-background:new 0 0 125.7 87.6;" xml:space="preserve">
  <style type="text/css">
	.st0{clip-path:url(#SVGID_2_);}
	.st2{clip-path:url(#SVGID_4_);}
</style>
  <title></title>
  <g id="Livello_2"></g>
  <g id="Livello_2_1_">
    <g>
      <defs>
        <rect id="SVGID_1_" x="21.6" y="11.8" width="81.4" height="65.8" />
      </defs>
      <clipPath id="SVGID_2_">
        <use xlink:href="#SVGID_1_" style="overflow:visible;" />
      </clipPath>
      <g class="st0">
        <path fill="#C32F2D" d="M37.2,70.2v-5.6c3.5,0,4.7-0.2,5.4,4.1H43V64h-9.6v0.6H35v12.3h-1.8v0.6h9.9v-5h-0.5
				c-0.5,3.8-1.5,4.4-4.2,4.4h-1.3v-6h0.7c1.2,0,1.9,0.7,2.2,2.8h0.5v-6.2H40c0,0-0.1,2.6-2.2,2.6L37.2,70.2L37.2,70.2z" />
        <path fill="#C32F2D" d="M33.3,70.4h-5.4V71h1.8v4.4c-0.3,1.1-2,1.6-2.5,1.6c-3.5,0-3.2-5-3.2-6.4c0-1.2-0.1-6.4,3.2-6.4
				c2.4,0,3.6,2.3,4,4.4h0.4v-4.9c-0.5,0.4-1.1,0.8-1.6,1.1c-0.7-0.8-1.8-1.2-2.8-1.1c-4,0-5.6,4-5.6,6.8c0,2.5,1.2,7,5.6,7
				c1.1,0,2.2-0.5,2.8-1.4l1.7,1.4v-6.5h1.5L33.3,70.4L33.3,70.4z" />
        <path fill="#C32F2D" d="M80.4,72.6l2-5.8l2.1,5.8H80.4z M72.7,70.3h-2.2v-5.7h2.8c1.6,0.3,1.7,2.2,1.7,2.7
				C75.1,68.8,74.4,70.3,72.7,70.3 M96.1,72.5c-0.5,3.8-1.5,4.4-4.2,4.4h-0.2V64.6h1.7V64h-5.7v0.6h1.7v12.3h-1.4l-5-13.3h-0.7
				c0,0-4.2,12-4.2,12.1s-0.3,1-1,1.2c-0.6,0-0.6-0.3-0.6-0.5v-2.4c0-0.9-0.2-1.8-0.6-2.6c-0.6-0.4-1.2-0.7-1.9-0.8
				c0,0,3.1-0.6,3.1-3.6c0-2.1-1.5-3.1-3.8-3.2h-6.8v0.6h1.7v12.3h-1.7v0.6h5.6v-0.6h-1.7v-5.9h2.3c4,0.4-0.7,6.6,4.6,6.6h3.3v-0.6
				c-0.2,0-1.4,0-1.5-0.8c0.1-1,0.4-1.9,0.8-2.8h4.6c0,0,1.4,3.6,1.5,3.6h-1.5v0.6h12.3v-5L96.1,72.5z" />
        <path fill="#C32F2D" d="M59.9,64.5c3.5,0,4.8-0.2,5.4,4.1h0.4v-4.8H51.8v0.6h0.4c0.5,0,1.6,0,1.7,1.1v7.8l-6.5-9.6h-3.5v0.6h0.5
				c0.7,0,1.6,0,1.7,1.1v10c0,1-1.5,1.4-2.1,1.4v0.5h4.8V77c-0.6,0-2.1-0.4-2.1-1.4v-8.8c2.5,3.7,7.4,10.7,7.5,10.7h0.3V65.6
				c0.1-1,1.2-1.1,1.7-1.1h1.6v12.3H56v0.6h9.8v-5h-0.4c-0.5,3.8-1.5,4.4-4.2,4.4h-1.3v-5.9h0.7c1.2,0,1.9,0.7,2.2,2.8h0.5v-6.2
				h-0.5c0,0-0.1,2.6-2.2,2.6H60L59.9,64.5L59.9,64.5z" />
      </g>
    </g>
    <polygon fill="#C32F2D" points="97.3,63.9 97.3,64.6 99.1,64.6 99.1,76.8 97.3,76.8 97.3,77.5 102.9,77.5 102.9,76.8 101.1,76.8
		101.1,64.6 102.9,64.6 102.9,63.9 	" />
    <g>
      <defs>
        <rect id="SVGID_3_" x="21.6" y="11.8" width="81.4" height="65.8" />
      </defs>
      <clipPath id="SVGID_4_">
        <use xlink:href="#SVGID_3_" style="overflow:visible;" />
      </clipPath>
      <g class="st2">
        <path fill="#C32F2D" d="M83.1,52.6c0.1-0.4,0.5-0.7,0.9-0.8l4.5-1l-0.4-4v-0.1c-0.2-1.3-1.2-2.3-2.6-2.3c-8-0.6-9.8-1.8-11.9-3.1
				l-0.1-0.1c-1.3-0.9-2.8-1.3-4.4-1.4c-1.8,0.1-3.6,0.4-5.4,1c-0.7,0.2-1.4,0.5-2,0.6c-2.6,1-5.5,1.5-8.3,1.4h-0.6l-0.2,0.6
				c-0.1,0.5-1.2,4.6-0.2,7.1c-0.6,0.4-0.9,1-0.9,1.6c0,0.9-0.2,1.1-0.3,1.2c-0.5,0.5-1.8,0.5-3,0.5h-0.5l-0.3,0.4
				c-0.8,0.9-2.1,1.3-3.3,1c-0.5-1.4-0.5-2.4,0-3c0.5-0.6,1.2-0.9,2-0.8h0.3c1.1,0,1.9-0.9,1.9-1.9v-7.2c0.3-0.5,0.6-1.1,0.8-1.7
				c1.8-0.3,3.1-1.8,3.1-3.5c0-0.7-0.2-1.4-0.6-1.9c1.8-0.8,2.9-2.5,3-4.5c0.1-1.5-0.7-2.9-2.1-3.6c0.3-0.8,0.7-2.2,1.1-3.6l1.4-5
				c0.5-1.9,2.2-3.3,4.2-3.4h24.8c-1.1,1.5-2.8,2.3-4.7,2.2H64.8l-0.8,1.6h13.5c-1,1.6-2.9,2.6-4.8,2.5h-9.8L62,22.9h8.7
				c-1,1.6-2.8,2.5-4.7,2.4h-5.3L59.8,27h5.6c0.1,0.1,0.2,0.4,0.2,1c0,1.1-0.9,1.9-2,1.9c-0.5,0-0.9-0.1-1.3-0.4
				c-0.3-0.1-0.5-0.2-0.7-0.3l-1.3,1.2c0.3,0.1,0.5,0.2,0.7,0.3c0.8,0.4,1.7,0.7,2.6,0.7c1,0,1.9-0.4,2.7-1.1c0.9,0.1,2.5,0.2,4,0.3
				c1.8,0.2,3.5,0.3,4.4,0.4c0.4,0,0.9,0,1.3,0.1c0.7,0,1.5,0.1,2.1,0.1c3.4,5.5,5.1,6.2,11.7,7c0.5,0.9,0.9,1.7,1.3,2.7v11.5
				c-0.5,0.3-1,0.6-1.6,0.8l-5.6,2.3C83.1,54.6,82.9,53.6,83.1,52.6 M81.9,55.5H71l4.7-4.9c0.9-0.8,1.2-2.1,0.8-3.3
				C76,46.2,75.5,45.1,75,44c1.8,0.8,4.7,1.6,10.4,2.1c0.7,0.1,0.9,0.3,1,0.9l0.3,2.5l-3,0.6c-1,0.2-1.8,0.9-2.2,1.8
				C81.1,53.1,81.3,54.4,81.9,55.5 M62.2,55.5c-0.3-0.9-0.2-1.9,0.4-2.7c0.5-0.5,1.2-0.8,1.9-0.8l3.2,0.5h0.6l2.3-2.5
				c1-0.9,1.1-2.4,0.4-3.6l-3-4.9c0.5-0.1,1-0.1,1.5-0.1c1.1,0.1,2.2,0.4,3.2,0.9c0.2,0.5,0.6,1.1,0.8,1.8c0.6,1.2,1.2,2.4,1.7,3.6
				c0.1,0.2,0.3,0.8-0.5,1.6l-5.8,6.1L62.2,55.5L62.2,55.5z M61.3,51.7c-0.9,1.1-1.2,2.5-0.8,3.8H50.2c0.9,0,1.8-0.3,2.5-0.9
				c0.5-0.7,0.8-1.5,0.7-2.4c0-0.1,0.1-0.3,0.6-0.5l0.9-0.4l-0.6-0.8c-0.9-1.4-0.5-4.3-0.2-5.9h0.1c2.8,0,5.5-0.5,8.1-1.5
				c0.6-0.2,1.3-0.4,1.9-0.6c0,0,0.7-0.2,1.6-0.5l3.4,5.6v0.1c0.4,0.5,0.4,0.8-0.3,1.5l-1.6,1.8l-2.7-0.5
				C63.4,50.2,62.2,50.7,61.3,51.7 M43.1,51.3c-0.8,1.3-0.9,2.8-0.3,4.2H41V42c0.7-0.1,1.4-0.3,2-0.5c0,0.6-0.1,1.1-0.2,1.6
				c0,0.2-0.1,0.3-0.1,0.5l-0.2,1h1c1.2,0,2.4-0.2,3.5-0.6v5.7c0,0.1-0.1,0.3-0.2,0.3c0,0,0,0-0.1,0h-0.3
				C45.2,49.7,43.9,50.2,43.1,51.3 M39.3,54l-7.9-2.1L23.4,54V39.9l7.9-2.1l7.9,2.1L39.3,54z M24.5,55.5l6.9-1.8l6.9,1.8H24.5z
				 M27.3,34.7c0.5-0.6,1.2-0.9,2-0.8L30,34l0.3-0.6c0.1-0.2,0.2-0.3,0.3-0.5c0.3-0.2,0.6-0.3,0.9-0.3c1.3,0.2,2.5,0.8,3.3,1.8
				c0.4,0.4,0.7,0.9,1,1.4c0.1,0.1,0.1,0.2,0.2,0.3c0.1,0.1,0.1,0.2,0.2,0.3c0,0.1,0.5,0.8,0.5,0.9c0.4-0.5,0.7-1,1-1.5v-0.1
				c-0.1-0.2-0.3-0.5-0.4-0.6L37.2,35c0,0-0.1-0.1-0.1-0.2c-0.1-0.2-0.2-0.4-0.4-0.5l2.2-3.5c0.4,0.1,0.9,0.1,1.3,0.1h0.1
				c3.1,0,6.3-1.8,6.3-4.7V26c0-0.7-0.1-1.5-0.3-2.2c-0.1-0.3-0.1-0.7-0.2-1c0-0.4,0.5-0.7,1.1-0.7h1l-0.5-2.5
				c1.4-1,2.2-2.6,2.2-4.3c1.6,1.3,2.6,3.2,2.7,5.3c0,0.8-0.1,1.6-0.3,2.4l-0.1,0.4c-0.3,1.3-0.7,2.5-1.2,3.7l-0.3,0.6l0.6,0.4
				c1.1,0.6,1.8,1.1,1.8,2.5c-0.1,1.7-1.4,3-3,3.3l-2.1,0.4l1.7,1.2c0.6,0.4,0.9,1,0.9,1.6c0,1.1-0.9,1.9-2,1.9h-0.6l-0.2,0.5
				c-0.6,2-1.3,3-3.5,3.3v-3l-0.1-1.9l-1.4,1.4c-0.6,0.5-1.4,0.9-2.2,1v-1.6l-9.6-2.5L28,37C27.4,36.4,27.1,35.6,27.3,34.7
				 M37.7,28.5c0-0.1,0.1-0.2,0.2-0.2l1.5,0.1c1.7-0.1,3.6-0.8,3.7-2.6c0.1-1.2-0.8-2.3-2-2.5c-0.8,0.1-1.6,0.5-2.3,1
				c-0.4,0.3-0.8,0.5-1.3,0.6c-0.2,0-0.3-0.1-0.4-0.3v-0.1l0.9-1.3l-0.8-0.5c-0.2-0.1-0.5-0.4-0.5-0.5s0.1-0.2,0.1-0.3
				c0.4-0.4,0.8-0.9,1.1-1.5c0.3-0.4,0.4-0.6,0.7-0.6c0.4,0,0.7,0.3,0.7,0.7c0,0,0,0,0,0c0,0.3,0.3,0.5,0.6,0.5s0.5-0.3,0.7-0.5
				c0,0,0.8-0.7,0.4-1.1s-2.5,0.5-1.9-1.4l0.1-0.3c0.8-0.7,2-1.1,3.1-1c0.4,0,0.8,0,1.2,0.1h0.3l4.2-2.6c0,0.1,0,0.1,0.1,0.2
				c0.1,1.4-0.6,2.8-1.8,3.5l-0.5,0.3l0.4,1.9c-1,0.2-1.8,1.1-1.8,2.2c0,0.4,0.1,0.9,0.2,1.3c0.1,0.6,0.2,1.3,0.3,1.9
				c0,2-2.7,3.3-5,3.2h-0.1c-0.7,0-1.3-0.1-1.9-0.4C37.7,28.7,37.7,28.6,37.7,28.5 M41.1,15.4c0.4-0.4,0.8-0.8,1.2-1.1
				c0.4-0.3,0.9-0.5,1.5-0.6c0.9-0.2,1.8-0.2,2.7,0l-3,1.8c-0.4,0-0.7-0.1-1.1-0.1c-0.5,0-0.9,0-1.3,0.1
				C41.1,15.5,41.1,15.5,41.1,15.4 M86.4,15h11.1c-1.1,1.5-2.8,2.3-4.7,2.2h-8.3C85.3,16.6,85.9,15.8,86.4,15 M85.7,21.3h-8.3
				c0.8-0.7,1.4-1.5,1.8-2.5h11.2C89.6,20.5,88,21.3,85.7,21.3 M79.2,25.3h-8.3c0.7-0.7,1.3-1.5,1.7-2.4h11.2
				C82.9,24.6,81.4,25.3,79.2,25.3 M81.1,31.7c2.5,0.4,4.7,1.6,6.4,3.5c0.4,0.4,0.7,0.8,1,1.3c-4.4-0.5-5.9-1.2-8.4-4.9
				C80.4,31.5,80.8,31.6,81.1,31.7 M98.7,49.7c0.1,0.3,0.3,0.5,0.5,0.7c0.2,0.3,0.4,0.6,0.6,0.9c-1.3-0.1-2.5-0.9-3.1-2.1
				C97.3,48.9,98.2,49.1,98.7,49.7 M88.2,55.5l1.7-0.6c2.5-1,2.8-1.6,2.7-3.3V45c1.8,4.7,3.7,8,7.2,8c0.5,0,1-0.1,1.6-0.2l1.4-0.3
				l-1-1.1c-0.5-0.5-0.9-1.2-1.3-1.8c-0.2-0.3-0.3-0.5-0.5-0.8c-1-1.4-2.9-1.9-4.5-1.1c-0.7-1.5-1.5-3.4-2.4-5.8L93,41.5
				c-0.2-0.4-0.3-0.7-0.5-1.1v-0.1c-0.6-1.3-1.2-2.5-1.8-3.6c-0.6-1-1.2-2-2-2.8c-1.9-2.2-4.5-3.6-7.4-4.1c-1.8-0.3-3.6-0.5-5.5-0.5
				c-0.4,0-0.8,0-1.2-0.1c-0.8-0.1-2.6-0.2-4.3-0.4c-1.2-0.1-2.3-0.2-3.2-0.3c0.1-0.3,0.1-0.5,0.1-0.8c0-0.3,0-0.7-0.1-1h12
				c2.9,0.2,5.5-1.5,6.7-4.1c2.8,0.1,5.5-1.5,6.7-4.1h0.5c3,0.1,5.7-1.6,6.8-4.4l0.5-0.8H59.6c-2.7,0-5.1,1.9-5.8,4.5v0.1
				c-0.7-1.9-1.9-3.5-3.6-4.6c-2-1.3-4.5-1.8-6.8-1.2c-0.7,0.2-1.3,0.5-1.9,0.8c-0.6,0.4-1.2,0.9-1.6,1.5c-0.5,0.7-1,1.4-1.4,2.2
				c-0.2,0.1-0.4,0.3-0.5,0.6L37.4,18v0.1c-0.5,1-1.1,2-1.8,2.9c-0.4,0.5-0.6,1.1-0.6,1.7c0.1,0.4,0.3,0.8,0.5,1.1
				c-0.2,0.3-0.3,0.6-0.3,0.9c0,1.1,1,2,2.1,1.9c0,0,0,0,0,0c0.8,0,1.6-0.4,2.3-0.9c0.4-0.3,0.9-0.6,1.3-0.7c0.3,0,0.6,0.3,0.6,0.6
				c0,0,0,0,0,0c0,0.9-1.1,1.4-1.9,1.4l-1.6,0.2c-1.2,0.1-1.7,0.7-1.7,1.3c0,0.4,0.2,0.8,0.5,1.1l0.1,0.1l0.5,0.4l-1.9,2.9
				c-1.1-1.1-2.5-1.7-4-1.9c-0.8-0.1-1.5,0.2-2.1,0.7c-0.1,0.1-0.3,0.3-0.4,0.5c-1.2,0-2.3,0.6-3,1.5c-0.6,0.9-0.4,2.5,0.4,3.6
				l-4.6,1.3v21.2H103v-4.2L88.2,55.5L88.2,55.5z" />
      </g>
    </g>
    <polygon fill="#C32F2D" points="37.6,42.1 32.3,40.7 32.3,42.5 37.6,43.8 	" />
    <polygon fill="#C32F2D" points="25.3,43.8 30.6,42.5 30.6,40.7 25.3,42.1 	" />
    <polygon fill="#C32F2D" points="25.3,47.3 30.6,45.9 30.6,44.2 25.3,45.6 	" />
    <polygon fill="#C32F2D" points="37.6,45.6 32.3,44.2 32.3,45.9 37.6,47.3 	" />
    <polygon fill="#C32F2D" points="37.6,49 32.3,47.7 32.3,49.4 37.6,50.8 	" />
    <polygon fill="#C32F2D" points="25.3,50.8 30.6,49.4 30.6,47.7 25.3,49 	" />
  </g>
</svg>
